<svg xmlns="http://www.w3.org/2000/svg" viewBox="0 0 256 256" role="img" aria-label="JP logo">
  <defs>
    <linearGradient id="p" x1="0" y1="0" x2="1" y2="1">
      <stop offset="0%" stop-color="#ffcf33"/>
      <stop offset="55%" stop-color="#ff9800"/>
      <stop offset="100%" stop-color="#ff6b00"/>
    </linearGradient>
    <filter id="shadow" x="-20%" y="-20%" width="140%" height="140%">
      <feDropShadow dx="0" dy="6" stdDeviation="8" flood-color="#000" flood-opacity="0.25"/>
    </filter>
  </defs>
  <rect width="256" height="256" rx="56" fill="#000"/>
  <circle cx="128" cy="128" r="96" fill="none" stroke="#ffffff" stroke-opacity="0.22" stroke-width="4" stroke-dasharray="2 10"/>
  <g filter="url(#shadow)">
    <path d="M73 182L95 74h43c22 0 35 13 35 31 0 19-12 34-31 39l17 38h-38l-14-33h-13l-7 33H73zm47-57h13c13 0 22-8 22-18 0-9-6-14-16-14h-15l-4 32z" fill="url(#p)"/>
    <path d="M58 181L80 74h41l-17 107H58z" fill="#f5f5f5"/>
    <path d="M74 182h18l13-63 14 63h37l-18-41c15-6 25-20 25-38 0-23-17-39-44-39H94L74 182z" fill="none"/>
  </g>
</svg>
